<svg xmlns="http://www.w3.org/2000/svg" width="160" height="48" viewBox="0 0 160 48">
  <g id="Group_5010" data-name="Group 5010" transform="translate(11504 4209)">
    <rect id="Rectangle_1592" data-name="Rectangle 1592" width="160" height="48" transform="translate(-11504 -4209)" fill="none"/>
    <g id="_10692_orig" data-name="10692_orig" transform="translate(-12120.046 -4151.458)">
      <g id="Layer_1_1_" transform="translate(622.046 -56)">
        <g id="XMLID_225_" transform="translate(41.516 6.631)">
          <g id="XMLID_162_" transform="translate(0 0)">
            <path id="XMLID_163_" d="M1255.122,50.314a7.814,7.814,0,0,0-.9-.033c-2.324,0-4.192,1.594-5.411,3.851h-.107c.14-1.179.214-2.324.308-3.469h-4.327c-.174,1.46-.382,4.3-.9,6.865l-1.875,10.1h4.963l1.212-6.316c.63-3.329,2.116-6.175,5.271-6.175a4.314,4.314,0,0,1,.8.074Zm-1.728,11.8c0,3.577,2.076,5.9,5.13,5.9,1.982,0,4.132-.938,5.686-3.751h.107c-.107,1.212-.214,2.4-.241,3.362h4.581a44.49,44.49,0,0,1,.69-7.635l1.8-8.881a20.339,20.339,0,0,0-5.62-.831C1257.171,50.28,1253.394,56.4,1253.394,62.115Zm11.339-3.992c-.831,4.132-2.6,5.867-4.093,5.867-1.386,0-2.076-1.139-2.076-2.813,0-3.161,2.364-7.113,5.586-7.113a5.326,5.326,0,0,1,1.387.141ZM1285.656,43l-1.46,7.7a7.041,7.041,0,0,0-2.324-.415c-6.416,0-10.649,5.412-10.649,11.339,0,4.092,2.324,6.39,5.238,6.39a6.488,6.488,0,0,0,5.546-3.121h.074l-.241,2.739h4.581a46.594,46.594,0,0,1,.8-6.591L1290.659,43ZM1282.6,59.235c-.663,3.228-2.431,4.749-3.885,4.749-1.427,0-2.324-1.139-2.324-3.195,0-3.262,2.117-6.7,5.1-6.7a3.375,3.375,0,0,1,1.983.556Zm15.224,4.749c-1.875,0-3.329-1.139-3.329-3.536,0-3.161,2.224-6.175,5.727-6.175a5.338,5.338,0,0,1,2.324.449l1.212-3.851a9.66,9.66,0,0,0-3.436-.589c-6.45,0-11.065,4.715-11.065,10.756,0,4.407,2.947,6.972,7.147,6.972a11.755,11.755,0,0,0,4.822-.9l-.033-3.851A8.057,8.057,0,0,1,1297.826,63.984Zm14.855-13.7c-6.034,0-10.167,4.856-10.167,10.723,0,4.226,2.913,7.006,7.22,7.006,5.867,0,10.127-4.548,10.127-10.756C1319.854,53.375,1317.222,50.28,1312.681,50.28ZM1310.424,64.2c-1.7,0-2.706-1.319-2.706-3.329-.034-2.6,1.427-6.765,4.3-6.765,2.009,0,2.672,1.628,2.672,3.228C1314.69,60.173,1313.163,64.2,1310.424,64.2Zm32.2-13.918a7.027,7.027,0,0,0-5.867,3.195c-.141-1.494-1.319-3.195-4.025-3.195a6.916,6.916,0,0,0-5.793,3.121h-.074l.309-2.739h-4.3c-.214,1.527-.449,3.362-.9,5.519l-2.076,11.446h4.856l1.353-7.635c.63-3.362,2.4-5.727,4.092-5.727,1.213,0,1.594.938,1.594,2.076a10.259,10.259,0,0,1-.241,1.942l-1.735,9.33h4.789l1.46-7.669c.63-3.436,2.291-5.686,3.992-5.686,1.139,0,1.628.831,1.628,2.009a14,14,0,0,1-.214,2.076l-1.7,9.263h4.856l1.8-9.852a18.837,18.837,0,0,0,.308-2.947C1346.739,51.955,1345.218,50.28,1342.62,50.28Z" transform="translate(-1241.9 -43)" fill="#333"/>
          </g>
        </g>
        <g id="Group_5007" data-name="Group 5007" transform="translate(0 0)">
          <g id="Group_5006" data-name="Group 5006">
            <path id="Path_13793" data-name="Path 13793" d="M647.8-56c-1.105,4.226-9.464,3.155-13.375,4.621-7.756,2.907-15.532,13.06-11.078,24.145.864,2.143,2.049,4.554,3.811,5.814,1.708,1.232,3.583.275,4.769-.7a14.3,14.3,0,0,0,5.372-9.33c.777-5.01-3.081-7.736-6.8-4.9-.663-1.145-1.319-2.291-1.982-3.443C635.719-39.772,651.727-47.333,647.8-56ZM637.119-43.643c-2.585,1.487-6.242-4.059-2.686-5.164C636.825-48.854,639.517-45.023,637.119-43.643Z" transform="translate(-622.046 56)" fill="#de2328"/>
          </g>
        </g>
      </g>
      <g id="Layer_2" transform="translate(630.864 -46.463)">
        <path id="Path_13794" data-name="Path 13794" d="M771.918,86.4c6.731-.047,8.064,9.973,6.209,16.195a19.118,19.118,0,0,1-11.989,12.672c-3.476,1.366-11.044,2.425-11.346,6.6-.228-.549-.449-1.112-.676-1.668a7.4,7.4,0,0,1,1.172-6.966c2.947-4.132,10.569-10.971,17.836-7.977-.194-1.333-.382-2.659-.576-3.992a.168.168,0,0,1-.047-.027c-4.836,2.2-9.464-2.625-8.319-7.535C765.1,89.747,767.94,87.342,771.918,86.4Z" transform="translate(-753.701 -86.398)" fill="#373435"/>
      </g>
      <g id="Layer_2_1_" transform="translate(687.198 -19.504)">
        <g id="Group_5009" data-name="Group 5009" transform="translate(0)">
          <g id="Group_5008" data-name="Group 5008">
            <path id="Path_13795" data-name="Path 13795" d="M1594.8,494.1a1.325,1.325,0,0,0,1.286,1.48,1.958,1.958,0,0,0,1.735-1.259h.02c-.053.462-.1.891-.1,1.159h.71a10.213,10.213,0,0,1,.194-2.076l.455-2.331a4.193,4.193,0,0,0-1.2-.174A3.127,3.127,0,0,0,1594.8,494.1Zm3.175-1.179c-.221,1.192-.978,2.029-1.614,2.029-.59,0-.764-.489-.764-.991a2.386,2.386,0,0,1,2.1-2.451,2.086,2.086,0,0,1,.536.067Zm4.561-2.023a2.026,2.026,0,0,0-1.607.944h-.02l.128-.844h-.7c-.067.456-.154,1.058-.248,1.594l-.9,4.722h.757l.362-1.936h.02a1.978,1.978,0,0,0,.971.2,2.914,2.914,0,0,0,2.612-3.068C1603.909,491.686,1603.507,490.9,1602.536,490.9Zm-1.239,4.079a1.369,1.369,0,0,1-.851-.248l.221-1.253c.228-1.252.991-1.942,1.588-1.942.649,0,.857.563.857,1.038C1603.119,493.742,1602.288,494.975,1601.3,494.975Zm6.088-4.079a2.027,2.027,0,0,0-1.607.944h-.02l.127-.844h-.7c-.067.456-.154,1.058-.248,1.594l-.9,4.722h.757l.362-1.936h.02a1.98,1.98,0,0,0,.971.2,2.914,2.914,0,0,0,2.612-3.068C1608.758,491.686,1608.356,490.9,1607.385,490.9Zm-1.239,4.079a1.367,1.367,0,0,1-.85-.248l.221-1.253c.228-1.252.991-1.942,1.587-1.942.65,0,.857.563.857,1.038C1607.968,493.742,1607.137,494.975,1606.146,494.975Zm4.5-3.007h-.027c.047-.342.08-.656.121-.971h-.676c-.047.415-.121,1.011-.228,1.594l-.542,2.887h.764l.368-1.976c.194-1.045.783-1.855,1.447-1.855a.807.807,0,0,1,.2.02l.147-.757a1.951,1.951,0,0,0-.214-.02A1.624,1.624,0,0,0,1610.647,491.968Zm4.059-1.072a2.689,2.689,0,0,0-2.478,2.84,1.708,1.708,0,0,0,1.748,1.842,2.686,2.686,0,0,0,2.478-2.813A1.705,1.705,0,0,0,1614.706,490.9Zm-.623,4.072c-.656,0-1.052-.529-1.052-1.259-.007-1.025.636-2.2,1.6-2.2.8,0,1.045.73,1.045,1.253C1615.67,493.8,1614.987,494.968,1614.083,494.968Zm2.933-.871a1.325,1.325,0,0,0,1.286,1.48,1.958,1.958,0,0,0,1.735-1.259h.02c-.053.462-.1.891-.1,1.159h.71a10.213,10.213,0,0,1,.194-2.076l.455-2.331a4.231,4.231,0,0,0-1.2-.174A3.127,3.127,0,0,0,1617.016,494.1Zm3.175-1.179c-.221,1.192-.978,2.029-1.614,2.029-.589,0-.764-.489-.764-.991a2.386,2.386,0,0,1,2.1-2.451,2.091,2.091,0,0,1,.536.067Zm1.681.918a1.611,1.611,0,0,0,1.715,1.735,3.121,3.121,0,0,0,1.293-.268l-.074-.609a2.3,2.3,0,0,1-1.031.248,1.053,1.053,0,0,1-1.105-1.192,2.084,2.084,0,0,1,1.9-2.2,1.666,1.666,0,0,1,.757.167l.221-.609a2.282,2.282,0,0,0-.931-.194A2.828,2.828,0,0,0,1621.872,493.836Zm6.919-2.94a1.934,1.934,0,0,0-1.6.9h-.02l.556-2.887h-.764l-1.246,6.577h.764l.415-2.244a1.927,1.927,0,0,1,1.527-1.7c.5,0,.69.321.69.743a3.874,3.874,0,0,1-.054.623l-.5,2.585h.764l.5-2.619a4.083,4.083,0,0,0,.074-.757A1.085,1.085,0,0,0,1628.791,490.9Zm1.856,4.581h.763l.857-4.481h-.764Zm1.507-6.249a.51.51,0,0,0-.509.516.444.444,0,0,0,.442.482.5.5,0,0,0,.516-.516A.439.439,0,0,0,1632.153,489.228Zm3.663,1.668a1.956,1.956,0,0,0-1.654.985h-.02l.114-.877h-.683c-.054.368-.114.8-.215,1.306l-.6,3.175h.764l.408-2.177a1.968,1.968,0,0,1,1.52-1.768c.529,0,.7.335.7.79a2.772,2.772,0,0,1-.067.576l-.489,2.585h.763l.5-2.612a4.283,4.283,0,0,0,.08-.723A1.083,1.083,0,0,0,1635.817,490.9Zm1.922,3.027a1.409,1.409,0,0,0,1.36,1.554,1.791,1.791,0,0,0,1.554-.951h.027l-.147.67c-.268,1.212-.857,1.6-1.608,1.6a2.349,2.349,0,0,1-1.179-.295l-.221.6a2.636,2.636,0,0,0,1.34.315,2.356,2.356,0,0,0,1.56-.5,3.333,3.333,0,0,0,.9-2l.683-3.7a3.6,3.6,0,0,0-1.433-.315A2.923,2.923,0,0,0,1637.739,493.923Zm3.141-.77c-.167.877-.831,1.715-1.487,1.715-.683,0-.857-.583-.857-1.072a2.161,2.161,0,0,1,1.9-2.277,1.8,1.8,0,0,1,.737.147Zm2.043,1.259a.589.589,0,0,0-.583.623.511.511,0,0,0,.509.549.587.587,0,0,0,.589-.61A.512.512,0,0,0,1642.923,494.412Zm1.855-2.13a1.339,1.339,0,0,0,.8,1.139c.462.261.616.475.616.824a.774.774,0,0,1-.85.73,2.026,2.026,0,0,1-.958-.275l-.214.563a1.924,1.924,0,0,0,1.105.308,1.522,1.522,0,0,0,1.708-1.474,1.415,1.415,0,0,0-.837-1.179c-.4-.221-.61-.429-.61-.75a.721.721,0,0,1,.8-.676,1.671,1.671,0,0,1,.777.2l.214-.583a1.835,1.835,0,0,0-.931-.221A1.481,1.481,0,0,0,1644.778,492.282Zm5.559-1.386a2.689,2.689,0,0,0-2.478,2.84,1.708,1.708,0,0,0,1.748,1.842,2.686,2.686,0,0,0,2.478-2.813A1.7,1.7,0,0,0,1650.337,490.9Zm-.63,4.072c-.656,0-1.052-.529-1.052-1.259-.007-1.025.636-2.2,1.6-2.2.8,0,1.045.73,1.045,1.253C1651.3,493.8,1650.612,494.968,1649.708,494.968Zm2.92.509h.757l1.259-6.577h-.763Zm5.264-2.183c-.188.991-.9,1.641-1.447,1.641-.529,0-.723-.315-.723-.777a3.1,3.1,0,0,1,.08-.656l.469-2.5h-.763l-.482,2.538a4.207,4.207,0,0,0-.08.75c0,1.018.6,1.3,1.172,1.3a2,2,0,0,0,1.58-.944h.02l-.12.844h.69q.07-.552.2-1.306l.6-3.175h-.764Zm3.7-3.5-.8.194L1660.6,491h-.636l-.121.6h.65l-.442,2.271a4.016,4.016,0,0,0-.094.844.834.834,0,0,0,.945.871,1.811,1.811,0,0,0,.589-.08l.04-.6a1.935,1.935,0,0,1-.362.027.378.378,0,0,1-.422-.429,4.541,4.541,0,0,1,.08-.723l.416-2.177h1.071l.121-.6h-1.072Zm.884,5.686h.763L1664.1,491h-.764Zm1.507-6.249a.51.51,0,0,0-.509.516.444.444,0,0,0,.442.482.5.5,0,0,0,.516-.516A.439.439,0,0,0,1663.987,489.228Zm3.148,1.668a2.689,2.689,0,0,0-2.478,2.84,1.708,1.708,0,0,0,1.748,1.842,2.686,2.686,0,0,0,2.478-2.813A1.7,1.7,0,0,0,1667.135,490.9Zm-.63,4.072c-.656,0-1.051-.529-1.051-1.259-.007-1.025.636-2.2,1.6-2.2.8,0,1.045.73,1.045,1.253C1668.1,493.8,1667.409,494.968,1666.505,494.968Zm5.968-4.072a1.955,1.955,0,0,0-1.654.985h-.02l.114-.877h-.683c-.054.368-.114.8-.215,1.306l-.6,3.175h.763l.409-2.177a1.965,1.965,0,0,1,1.527-1.768c.529,0,.7.335.7.79a2.789,2.789,0,0,1-.067.576l-.489,2.585h.763l.5-2.612a4.213,4.213,0,0,0,.081-.723A1.09,1.09,0,0,0,1672.473,490.9Zm3.858.6a1.673,1.673,0,0,1,.777.2l.214-.583a1.839,1.839,0,0,0-.931-.221,1.47,1.47,0,0,0-1.614,1.386,1.339,1.339,0,0,0,.8,1.139c.462.261.616.476.616.824a.775.775,0,0,1-.851.73,2.024,2.024,0,0,1-.957-.275l-.215.563a1.924,1.924,0,0,0,1.105.308,1.522,1.522,0,0,0,1.708-1.474,1.415,1.415,0,0,0-.837-1.179c-.4-.221-.609-.429-.609-.75A.718.718,0,0,1,1676.331,491.492Z" transform="translate(-1594.8 -488.9)" fill="#7a7a7a"/>
          </g>
        </g>
      </g>
    </g>
  </g>
</svg>
